<mxfile host="app.diagrams.net" modified="2022-03-08T17:02:11.037Z" agent="5.0 (Windows)" etag="BknarVjguILofKIj6qWx" version="16.6.6" type="github">
  <diagram id="eBbm-OJ10XKza3Faik-9" name="Page-1">
    <mxGraphModel dx="868" dy="450" grid="1" gridSize="10" guides="1" tooltips="1" connect="1" arrows="1" fold="1" page="1" pageScale="1" pageWidth="850" pageHeight="1100" math="0" shadow="0">
      <root>
        <mxCell id="0" />
        <mxCell id="1" parent="0" />
        <mxCell id="46ggKFVZI3bvTAqcsLHF-8" style="edgeStyle=orthogonalEdgeStyle;rounded=0;orthogonalLoop=1;jettySize=auto;html=1;entryX=0;entryY=0.5;entryDx=0;entryDy=0;fontSize=24;strokeWidth=3;endArrow=none;endFill=0;" edge="1" parent="1" source="46ggKFVZI3bvTAqcsLHF-3" target="46ggKFVZI3bvTAqcsLHF-7">
          <mxGeometry relative="1" as="geometry" />
        </mxCell>
        <mxCell id="46ggKFVZI3bvTAqcsLHF-3" value="Player" style="rounded=1;whiteSpace=wrap;html=1;fontSize=24;strokeWidth=3;" vertex="1" parent="1">
          <mxGeometry x="210" y="190" width="180" height="60" as="geometry" />
        </mxCell>
        <mxCell id="46ggKFVZI3bvTAqcsLHF-4" value="Log in info" style="rounded=1;whiteSpace=wrap;html=1;fontSize=24;strokeWidth=3;" vertex="1" parent="1">
          <mxGeometry x="670" y="190" width="170" height="60" as="geometry" />
        </mxCell>
        <mxCell id="46ggKFVZI3bvTAqcsLHF-9" style="edgeStyle=orthogonalEdgeStyle;rounded=0;orthogonalLoop=1;jettySize=auto;html=1;exitX=1;exitY=0.5;exitDx=0;exitDy=0;entryX=0;entryY=0.5;entryDx=0;entryDy=0;fontSize=24;endArrow=none;endFill=0;strokeWidth=3;" edge="1" parent="1" source="46ggKFVZI3bvTAqcsLHF-7" target="46ggKFVZI3bvTAqcsLHF-4">
          <mxGeometry relative="1" as="geometry" />
        </mxCell>
        <mxCell id="46ggKFVZI3bvTAqcsLHF-7" value="Login" style="rhombus;whiteSpace=wrap;html=1;fontSize=24;strokeWidth=3;" vertex="1" parent="1">
          <mxGeometry x="490" y="180" width="80" height="80" as="geometry" />
        </mxCell>
        <mxCell id="46ggKFVZI3bvTAqcsLHF-10" value="1" style="text;html=1;align=center;verticalAlign=middle;resizable=0;points=[];autosize=1;strokeColor=none;fillColor=none;fontSize=24;" vertex="1" parent="1">
          <mxGeometry x="395" y="190" width="30" height="30" as="geometry" />
        </mxCell>
        <mxCell id="46ggKFVZI3bvTAqcsLHF-11" value="1" style="text;html=1;align=center;verticalAlign=middle;resizable=0;points=[];autosize=1;strokeColor=none;fillColor=none;fontSize=24;" vertex="1" parent="1">
          <mxGeometry x="635" y="190" width="30" height="30" as="geometry" />
        </mxCell>
      </root>
    </mxGraphModel>
  </diagram>
</mxfile>
